<?xml version="1.0" standalone="no"?>
<!DOCTYPE svg PUBLIC "-//W3C//DTD SVG 20010904//EN"
 "http://www.w3.org/TR/2001/REC-SVG-20010904/DTD/svg10.dtd">
<svg version="1.0" xmlns="http://www.w3.org/2000/svg"
 width="512.000000pt" height="512.000000pt" viewBox="0 0 512.000000 512.000000"
 preserveAspectRatio="xMidYMid meet">

<g transform="translate(0.000000,512.000000) scale(0.100000,-0.100000)"
fill="#949494" stroke="none">
<path d="M1245 3471 c-694 -84 -979 -122 -1002 -134 -71 -37 -123 -134 -149
-277 -28 -156 -12 -303 47 -431 l32 -69 -32 -69 c-80 -175 -81 -407 -2 -576
28 -61 28 -62 9 -86 -36 -46 -87 -157 -108 -235 -94 -358 -6 -813 177 -921 42
-24 106 -33 1435 -189 l1392 -164 290 35 c160 19 303 37 319 40 l27 4 0 -164
c0 -180 6 -207 51 -226 56 -23 77 -2 179 167 51 85 96 154 99 154 3 -1 44 -52
90 -115 93 -125 121 -146 170 -125 16 6 33 19 38 28 4 10 10 93 13 187 l5 170
360 43 c198 23 372 47 387 53 36 15 54 60 39 98 -12 27 -47 51 -75 51 -20 0
-63 52 -87 105 -39 88 -59 186 -66 315 -13 277 53 494 165 541 54 23 72 42 72
79 0 36 -25 67 -61 75 -25 6 -36 17 -55 59 -58 128 -59 315 -3 447 17 38 30
53 57 65 42 17 61 40 62 74 0 36 -25 67 -61 75 -25 6 -36 17 -55 59 -58 127
-59 315 -3 446 16 37 30 54 58 67 65 32 75 101 19 137 -32 20 -2553 317 -2733
322 -117 3 -227 -8 -1100 -115z m-330 -341 c143 -15 136 -11 123 -54 -9 -28
-17 -36 -35 -36 -13 0 -34 -11 -47 -24 -20 -19 -25 -38 -31 -112 -8 -87 -1
-262 12 -312 l6 -25 -59 7 c-127 15 -120 11 -140 79 -29 97 -27 328 4 425 18
59 26 72 40 68 9 -2 67 -10 127 -16z m3920 -57 c-4 -10 -14 -54 -22 -98 -20
-110 -12 -256 20 -358 l25 -77 -22 -5 c-11 -2 -421 -52 -911 -110 -834 -99
-891 -105 -902 -88 -7 9 -23 42 -35 72 -19 48 -22 75 -22 191 0 116 3 143 22
191 37 92 19 85 297 118 886 105 1442 172 1455 175 8 2 35 4 59 5 37 1 42 -1
36 -16z m-3615 -699 c459 -54 836 -98 838 -99 1 -1 0 -10 -4 -19 -4 -10 -17
-16 -36 -16 -48 0 -74 -36 -88 -121 -14 -81 -9 -239 10 -327 7 -29 10 -55 8
-58 -3 -2 -369 39 -814 91 -798 94 -809 95 -831 120 -73 83 -82 342 -17 484
24 53 24 54 62 48 20 -3 413 -50 872 -103z m3615 -21 c-4 -10 -14 -56 -22
-103 -23 -130 -6 -300 42 -412 5 -13 1 -18 -17 -22 -12 -3 -423 -53 -913 -111
-834 -99 -891 -105 -902 -88 -7 9 -23 42 -35 72 -19 48 -22 75 -22 191 0 116
3 143 22 191 37 94 -5 82 517 144 259 31 646 78 860 104 215 27 410 49 434 50
37 1 42 -1 36 -16z m-1979 -173 c1 0 -10 -35 -24 -77 -23 -69 -26 -94 -26
-218 0 -99 5 -157 16 -197 16 -58 16 -58 -5 -58 -51 0 -351 40 -359 48 -16 16
-38 165 -38 255 0 95 17 196 44 258 l15 35 188 -23 c103 -12 189 -22 189 -23z
m-2444 -431 c58 -8 87 -16 84 -23 -55 -131 -96 -341 -96 -498 0 -127 31 -356
57 -425 5 -13 -3 -14 -68 -8 -41 4 -84 13 -96 21 -31 19 -80 119 -105 213 -17
63 -21 106 -22 246 0 177 9 237 53 356 21 56 74 129 94 129 6 0 50 -5 99 -11z
m384 -48 c21 -1 21 -2 -6 -78 -54 -152 -65 -230 -64 -448 0 -110 5 -220 11
-244 l11 -43 -71 7 c-40 4 -73 8 -75 9 -11 11 -33 162 -38 261 -10 184 13 325
77 481 l29 70 53 -7 c28 -4 61 -8 73 -8z m781 -90 c271 -31 495 -60 498 -63 3
-3 -6 -45 -20 -94 -70 -241 -72 -569 -4 -789 10 -32 16 -61 14 -63 -4 -4
-1038 114 -1081 123 -16 4 -27 25 -52 107 -42 138 -56 253 -49 418 6 149 27
246 79 361 l31 69 46 -6 c25 -3 268 -31 538 -63z m3211 -13 c-50 -132 -62
-214 -62 -408 0 -200 11 -264 69 -402 15 -35 29 -70 31 -78 4 -13 -34 -20
-251 -46 l-255 -30 2 240 3 241 39 6 c86 14 104 107 29 147 -17 10 -98 3 -395
-33 -362 -44 -374 -46 -395 -71 -25 -28 -29 -70 -9 -96 15 -20 64 -41 77 -32
5 3 9 -92 9 -235 l0 -241 -22 -5 c-13 -2 -160 -21 -327 -40 l-303 -36 -25 23
c-34 32 -78 130 -100 223 -24 107 -25 369 -1 466 27 104 56 173 91 212 l32 36
600 71 c330 39 719 86 865 104 146 19 277 34 292 35 l26 1 -20 -52z m-2405
-85 c13 -3 16 -10 12 -21 -19 -46 -47 -157 -60 -237 -18 -111 -19 -352 -1
-460 8 -44 13 -81 12 -81 -3 -3 -139 16 -144 20 -13 14 -33 146 -39 257 -9
185 13 334 73 492 l19 48 55 -6 c30 -4 63 -9 73 -12z m340 -35 c90 -10 107
-15 103 -28 -2 -8 -16 -43 -31 -78 -92 -221 -100 -537 -19 -781 14 -40 23 -75
22 -76 -2 -2 -49 2 -106 8 l-103 11 -19 35 c-67 132 -95 292 -87 505 5 152 29
280 71 379 19 43 14 42 169 25z"/>
</g>
</svg>
